<?xml version="1.0" encoding="UTF-8" standalone="no"?>
<!-- Creator: CorelDRAW -->

<svg
   xml:space="preserve"
   width="277.00015mm"
   height="159.93411mm"
   version="1.1"
   style="clip-rule:evenodd;fill-rule:evenodd;image-rendering:optimizeQuality;shape-rendering:geometricPrecision;text-rendering:geometricPrecision"
   viewBox="0 0 27700.015 15993.411"
   id="svg38"
   sodipodi:docname="rect38.svg"
   inkscape:version="1.3 (0e150ed6c4, 2023-07-21)"
   xmlns:inkscape="http://www.inkscape.org/namespaces/inkscape"
   xmlns:sodipodi="http://sodipodi.sourceforge.net/DTD/sodipodi-0.dtd"
   xmlns:xlink="http://www.w3.org/1999/xlink"
   xmlns="http://www.w3.org/2000/svg"
   xmlns:svg="http://www.w3.org/2000/svg"><sodipodi:namedview
   id="namedview38"
   pagecolor="#ffffff"
   bordercolor="#000000"
   borderopacity="0.25"
   inkscape:showpageshadow="2"
   inkscape:pageopacity="0.0"
   inkscape:pagecheckerboard="0"
   inkscape:deskcolor="#d1d1d1"
   inkscape:document-units="mm"
   inkscape:zoom="0.59213249"
   inkscape:cx="461.04547"
   inkscape:cy="455.13463"
   inkscape:window-width="1920"
   inkscape:window-height="1001"
   inkscape:window-x="-9"
   inkscape:window-y="-9"
   inkscape:window-maximized="1"
   inkscape:current-layer="Plan_x0020_1" />&#10; <defs
   id="defs1"><pattern
     inkscape:collect="always"
     xlink:href="#Strips1_3"
     preserveAspectRatio="xMidYMid"
     id="pattern56"
     patternTransform="matrix(35.355339,35.355339,-35.355339,35.355339,0,0)"
     x="0"
     y="0" /><pattern
     inkscape:collect="always"
     patternUnits="userSpaceOnUse"
     width="4"
     height="1"
     patternTransform="translate(0,0) scale(2,2)"
     preserveAspectRatio="xMidYMid"
     id="Strips1_3"
     style="fill:#f2f2f2"
     inkscape:stockid="Stripes 04 (1:3)"
     inkscape:isstock="true"
     inkscape:label="Stripes 04 (1:3)">&#10;      <rect
   style="stroke:none"
   x="0"
   y="-0.5"
   width="1"
   height="2"
   id="rect152" />&#10;    </pattern><linearGradient
     id="swatch38"
     inkscape:swatch="solid"><stop
       style="stop-color:#e6e6e6;stop-opacity:1;"
       offset="0"
       id="stop38" /></linearGradient><style
     type="text/css"
     id="style1">&#10;   <![CDATA[
    .str2 {stroke:black;stroke-width:10;stroke-opacity:0.501961}
    .str0 {stroke:#2B2A29;stroke-width:75}
    .str4 {stroke:black;stroke-width:50}
    .str6 {stroke:#434242;stroke-width:10}
    .str1 {stroke:black;stroke-width:10}
    .str3 {stroke:black;stroke-width:10}
    .str7 {stroke:#2B2A29;stroke-width:7.62}
    .str5 {stroke:black;stroke-width:7.62}
    .fil7 {fill:none}
    .fil1 {fill:#FEFEFE}
    .fil9 {fill:#D9DADA}
    .fil0 {fill:#2B2A29}
    .fil2 {fill:#94ADBD}
    .fil5 {fill:#FEFEFE;fill-rule:nonzero}
    .fil4 {fill:#D9DADA;fill-rule:nonzero}
    .fil8 {fill:#434242;fill-rule:nonzero}
    .fil6 {fill:black;fill-rule:nonzero}
    .fil3 {fill:#FEFEFE;fill-rule:nonzero;fill-opacity:0.501961}
   ]]>&#10;  </style></defs>&#10;&#10;&#10; <g
   id="Plan_x0020_1"
   inkscape:label="Plan 1"
   inkscape:groupmode="layer"
   transform="translate(-999.99308,-2503.2943)">&#10;  <metadata
   id="CorelCorpID_0Corel-Layer" />&#10;  <path
   id="rect38"
   style="fill:url(#pattern56);fill-opacity:1;stroke-width:1322.92"
   d="M 28700.007,18496.706 H 999.99306 Z M 21788.233,2503.3148 c -14,-0.625 -23.246,12.897 -32.246,55.397 -19,89 -65.976,106.988 -137.976,142.988 -113,56 -42.026,143.028 -47.026,232.028 -2,31 5.014,139.994 -14.986,136.994 -43,-7 -134.021,-85.027 -164.021,-27.027 -35,68 120.998,234 113.998,299 -77,33 -172.969,41.033 -257.969,58.033 -109.999,21 -148.009,-43.039 -233.009,-89.039 -77,-41 -163.985,299.025 -202.985,346.025 -127,202 -196.032,496.976 -152.032,735.976 3,69 18.02,104.006 53.02,162.006 22,36 53.008,64.001 48.008,111.001 -10,96 -74.014,177.036 -116.014,260.036 -32,64 9.02,139.985 16.02,202.985 84,157.999 -118.017,300.99 -56.017,458.99 21,54 -60.982,75.987 -94.982,88.986 -55,20 -161.989,-19.99 -216.989,-28.99 -45,-8 -87.018,17.002 -130.018,17.002 -78,21 -176.005,39.992 -256.005,45.992 -68,5 -120.995,98.993 -173.995,62.993 -38,-26 -80.016,-53.989 -113.016,-85.989 -60,-59 -85.993,-35.008 -156.993,-48.008 l -2.997,213.01 8.01,295.021 c 2,59 30.994,184.971 -31.006,217.971 -65,35 -83.029,77.033 -81.029,152.032 19,67 26.018,91.975 -0.982,157.975 -24,57 -62.018,100.985 -73.018,165.985 -6,37 4.022,67.048 -23.978,97.048 -28,30 -111.993,-12.028 -119.993,-44.028 -13,-39 -8.01,-94.012 -8.01,-136.012 0,-48 -27.013,-80.972 -42.013,-123.972 -13,-38 -33.006,-24.021 -68.006,-33.021 -44,-11 -78.975,-14.97 -120.974,-32.97 -45,-19 -48.003,-84.013 -91.003,-79.013 -22,3 -65.013,-4.011 -79.013,11.989 l -75.964,82.992 c -45,49 -49.035,100.993 -75.034,156.993 -29,63 -57.989,104.029 -105.989,155.029 -54,57 -182.001,167.978 -185.001,248.977 -3,58 1.98,135.033 -16.02,189.033 0,46 -17.982,131.968 36.018,146.968 51,14 39.026,64.996 84.026,96.996 31,22 43.992,35.001 45.992,74.001 2,52 9.01,79.032 45.01,115.032 53,53 48.992,43.971 45.992,123.971 -2,48 -32.027,44.988 -64.027,68.988 -32,23 -59.966,52.001 -92.966,74.001 -7,5 -42.031,34.042 -41.031,29.042 -22,14 -52.992,66.002 -45.992,91.002 8,28 34.01,50.996 45.01,79.996 18,51 5.968,143.985 15.968,202.985 32,186.999 -67.973,258.005 -177.973,387.004 0,23 -2.011,203.988 11.989,199.988 l 204.018,-49.971 c 177,-43 262.982,70.975 262.982,251.974 0,24 34.002,35.008 54.002,48.008 41,27 60.014,-77.011 96.014,-82.011 18,5 8.989,119.992 11.989,139.992 7,56 32.013,105.024 42.013,161.024 6,73.999 60.01,152.978 45.01,228.978 -49,25 -170.032,129.03 -226.032,98.03 -83,-46 -178.984,-62.032 -259.984,-115.032 l -130.018,-85.989 -1.964,2.015 c -15,0 -49.04,34.998 -69.04,39.998 -30,8 -63.981,13.97 -94.981,12.97 -67,-2 -105,-40.979 -168,-40.979 l -178.025,93.999 c -55,29 -109.982,95.983 -168.982,111.983 -90,25 -192.997,-62.991 -264.997,-102.991 -56,-31 -130.986,-120.015 -182.986,-133.015 l -130.018,-32.97 -258.021,-247.013 -139.991,102.009 c -67,27 -87.985,66.014 -165.985,79.014 -81,13 -126.975,57.963 -194.975,95.963 -111,61 -240.027,94.029 -363.027,118.029 -82,16 -138.977,56.966 -211.977,92.966 -20,10 -84.01,-163.967 -82.01,-166.967 3,-6 85.991,-29.995 102.991,-42.995 25,-19 68.007,-305.991 105.006,-270.991 33,31 14.013,71.956 5.013,121.956 -26,154 426.993,-44.961 193.993,-172.961 -15,-8 -40,-41.997 -37,-39.997 -35,-63 -35.988,-129.006 -31.988,-199.006 3,-56 3.962,-94.039 -52.038,-126.039 -33,-19 -83.998,-14 -113.998,-37 -45,-35 -29.964,-86.979 -38.964,-134.979 -28,0 -80.012,42.991 -99.012,65.991 -30,38 -79.012,80.99 -99.012,122.99 -18,38 -19.006,79.029 -31.006,118.029 -116,220.999 -176.986,200.978 -407.985,228.978 -119,15 -489.996,10.015 -489.996,-165.985 0,-5 1.969,-30.006 -4.031,-31.006 0,-3 -127.973,-99.994 -140.973,-136.994 l -64.028,-188.981 c -15,-45 -54.982,-52.038 -74.982,-89.038 -78,-65 -198.024,-36.981 -292.024,-57.981 -65.999,-15 -159.962,-122.008 -189.962,-122.008 -40,0 -84,45.007 -131,48.007 -74,5 -138.028,-18.01 -212.028,-8.01 -99,13 -166.967,53.99 -166.967,-82.01 0,-93 -47.038,-233.997 -146.037,-264.997 -132,0 -324.978,24.016 -416.978,-91.984 -34,-43 -55.024,-37.984 -104.024,-54.984 -60,-21 -91.979,8.997 -97.979,-71.003 -6,-86 -2.013,-86.035 51.987,-149.035 49,-57 25.996,-155.996 22.996,-227.996 -2,-55 11.993,-65.965 25.993,-112.965 51,-42 168.037,-216.04 109.037,-274.04 -87,-87 -245.99,-94.951 -364.99,-90.951 -39,1 -85.008,27.981 -122.008,20.981 -62,22 -95.02,34.995 -147.02,79.995 -20,17 -44.001,67.005 -74.001,51.005 -77.999,-43 -169.968,-68 -257.968,-94 -29,-9 -169.006,-43.979 -162.006,-77.979 14,-67 10.005,-144.04 51.005,-200.04 l 212.958,-410.001 24.03,-57.981 c -50,17 -136.014,17.994 -190.014,25.994 l -238.022,31.987 c -190,26 -382.98,-33.966 -544.98,-129.966 l -578.001,-186.035 c -118.999,-38 -330.972,-117.971 -402.972,-217.971 -45,-62 -6.019,-139.03 -36.019,-192.03 -3,0 -3.012,0 -5.012,-2.997 -40,0 -70.977,18.028 -80.977,-29.972 -5,-24 -19.007,-77.994 -11.007,-99.994 -4,-43 -11.987,-92.029 -51.987,-118.029 -28,-18 -84.037,-88.005 -109.037,-88.005 -41,0 -87.985,3.007 -128.984,11.007 -186,35 -309.026,27.023 -477.026,-43.977 -71,-30 -94.977,-148.992 -117.977,-213.992 -18,-50 -60.988,-36.007 -105.988,-48.007 -102,-8 -139.018,98.008 -224.018,28.008 -58,-47 -100.985,-184.036 -108.985,-260.036 -7,-71.999 -63.017,14.004 -113.017,34.004 -102.999,41 -135.015,-52.98 -170.015,90.02 -6,26 56.003,44.005 71.003,51.005 48,24 169.032,234.972 78.032,234.972 -59,0 -42.987,8.033 -51.987,58.033 -20,109 -26.03,135.961 -135.03,135.961 -18,0 -9.992,-81.003 -45.992,-91.003 l -150.999,-42.994 c -58,-17 -64.985,-48.986 -108.985,-71.986 -39,-20 -86.007,46.981 -142.007,20.981 -61,-28 -84.018,-43.975 -130.018,10.025 -60,40 33.02,54.991 16.02,102.991 -23,66 -111.988,13.998 -125.988,76.998 -8,37 -32.006,50.023 -68.006,50.023 -59,0 -90.043,-43.017 -140.043,-56.017 -76,-19 -109.956,86.989 -121.956,142.988 l -62.994,301.998 c -13,62.999 0.988,98.026 -5.012,158.026 -12,178 -107.032,386.976 -209.032,530.975 -88,126 -328.987,110.02 -461.987,110.02 29,-88 145.029,-145.984 -12.971,-185.984 -31,-8 -24.046,11 -43.046,37 l -88.987,122.99 c -70,35 -67.998,-55.996 -76.998,-96.996 -10,-46 -97.997,-49.016 -133.997,-76.016 -27,-20 -36.007,38.017 -48.007,56.017 -32,47 -30.982,82.997 -94.982,96.997 -95.999,20.999 -113.016,-30.01 -150.016,65.99 -16,41 -110.006,188.979 -162.006,171.979 -36,-12 -57.966,-41.999 -92.966,-56.999 -58,-24 -96.033,30.996 -132.033,22.996 -42,-10 -26.967,-119.995 -72.967,-79.995 -30,26 -178.013,134.024 -210.013,124.024 -21,10 -84.009,13.991 -102.009,8.991 0,-61 95.01,-111.978 82.01,-191.978 -13,-80.999 -144.983,-52.046 -185.983,-80.046 -32,-22 -44.04,-83.954 -69.04,-87.954 -3,-17 -64.967,7.956 -72.967,10.956 -25,10 -58.034,11.044 -75.034,-10.956 -27,-36 -36.99,-114.008 -48.99,-159.008 -3,-12 -19.006,-93.018 -31.006,-93.018 -9,-45 -239.011,91.025 -287.01,104.025 -90,25 -146.97,147.971 -200.97,217.971 -31,39 -152.021,66.013 -164.021,5.013 -22,-3 -30.969,-60.027 -52.968,-64.027 -9,-61 -132.014,18.035 -153.014,18.035 -44,0 -67.981,-80.009 -114.98,-102.009 -24,-11 -78.025,-26.006 -104.025,-31.006 -1,-10 -38.008,-28.003 -48.008,-34.003 -81.999,-41 -76.008,-59.974 -65.008,-140.974 8,-61 -32.983,-70.022 -74.983,-107.022 -24,-21 -46.98,-49.993 -77.98,-62.993 -29,-12 -43.017,32.986 -56.017,51.986 -36,55 -68.021,85.029 -127.021,118.029 -21,12 -69.974,26.959 -83.974,44.959 -19,25 -3.986,86.026 -14.986,121.026 l 18.965,32.97 c 11,-4 29.034,-5.953 38.034,-13.953 56,0 52.991,76.97 102.991,106.97 69,41 119.007,140.008 142.007,216.008 14,44 58.966,126 55.966,168 -21,21 -62.959,-8.999 -81.959,-19.999 -24,-14 -61,27.978 -94,23.978 -27,-4 -41.006,-3.969 -68.006,4.031 -73,21 -144.03,-65.995 -135.03,-136.995 12,-94 18.999,-108.035 -37.001,-186.035 -15,-21 -9.97,-50.964 -12.97,-75.964 -7,-5 -22.027,-25.021 -27.027,-33.021 l -22.014,-20.981 c -22,-43 -13.961,-74.993 -4.961,-119.993 7,-33 18.982,-86.05 37.982,-114.05 17,-24 30.016,-40.988 39.016,-68.988 l 0.981,-9.973 c -2,-2 -13.004,-13.02 -14.004,-16.02 -3,-1 -5.994,-6.973 -5.994,-9.973 -26,-13 -50.014,-47.03 -79.014,-61.03 -33,-17 -53.992,-49.97 -82.992,-69.97 -19,-13 -43.984,41.965 -54.984,55.965 -19,25 -43.011,31.039 -62.011,52.039 -11,12 -16.977,147.984 -6.977,165.984 18,34 106.961,-0.03 135.961,15.968 34,20 61.995,117.017 42.995,150.017 -41,72 -152.984,41.022 -185.984,107.022 6,77 17.998,100.965 76.998,149.965 36,30 87.023,68.011 87.023,119.011 0,48 -136.01,94.004 -82.01,145.004 47,45 150.998,17.988 150.998,105.988 -116,240 21.016,177.041 170.016,311.041 l 118.959,105.988 c 44,40 48.046,-79.034 100.046,-75.034 123.999,10 174.978,89.017 265.978,150.016 42,28 8.021,80.025 33.021,104.025 10,10 100.988,-9.043 125.987,-9.043 11,0 29.996,-144.978 79.996,-191.978 69,-64 236.001,142.985 316.001,202.985 137,102 -25.997,117.006 -96.997,199.006 -58,67 -108.995,162.01 -79.995,250.01 30,92 119.986,-26.017 145.986,37.983 48,115.999 -94.021,161.035 3.979,260.035 81,81 103.026,217.972 252.026,217.972 49,-4 127.018,2.99 130.018,65.99 5,115 -109.035,68.041 -186.035,49.041 -65,-15 -159.961,17.981 -209.961,57.981 -54,44 7.963,102.986 -35.037,145.986 -26,26 -67.98,22.027 -77.98,64.027 -9,36 49.991,129.985 65.991,165.985 29,66 77.98,186.005 77.98,256.005 3,47 15.008,83.987 -8.992,125.987 -15,25 -59.971,38.009 -86.971,28.009 -37,-13 -59.019,-112.02 -73.019,-147.02 -25,-64 -48.007,-66.996 -105.007,-22.996 -88,67 -128.002,79.04 -128.002,200.04 0,88 -23.98,209.965 -77.98,280.965 -27,48.9992 -92.996,63.0082 -59.996,122.0082 21,37 47.981,69.019 57.981,110.019 40,0 40.988,-24.033 68.988,-58.033 23,-28 155.029,-163.9882 155.029,-68.988 0,172 50.973,228.03 140.973,360.03 35,51 85.996,78.994 116.996,136.994 31,58 18.035,132.991 18.035,196.991 0,105.999 -191.989,133.97 -273.989,143.97 -96,12 -250.005,-41.964 -330.005,-1.964 -8,64 -103.011,83.996 -119.011,153.996 -22,101 -31.988,232.009 -68.988,327.009 -48,122 -236.999,176.964 -355.999,206.964 -79,60 -214.013,40.024 -210.013,161.024 10,271 -174.008,159.984 -347.007,222.984 -102,37 -203.989,425.029 -273.989,417.029 -17,-2 -116.017,-103.009 -150.017,-122.009 -46.999,-27 -118.979,-40.992 -171.979,-45.992 -99,-10 -78.041,-163.039 -254.041,-163.039 -55,0 -210.954,-44.006 -161.954,25.994 41,59.999 83.965,178.013 149.965,210.013 21,10 168.007,57.01 142.007,82.01 -51,51 -73,38.011 -37,119.011 44,98 -167.979,191.971 -3.98,217.971 99,15 83.975,48.024 83.975,124.024 0,37.999 53.01,55.982 82.01,37.982 18,-11 -35.013,-85.976 -42.013,-100.976 -30,-59 15.019,-98.006 73.019,-68.006 46,24 56.978,123.972 23.978,160.972 -17,11 -71.967,40.032 -72.967,58.032 -4,54 70.98,85.997 114.98,59.997 111,-65 150.98,94.016 245.98,113.016 59,12 68.001,-13 111.001,-37 87,-46 134.043,43.002 177.043,-76.998 16,-43 52.963,-110.032 21.963,-152.032 -27,-36 -46.983,-76.001 -74.983,-111.001 -53,-66 310.007,-162.985 310.007,-202.985 -46,-11 -170.999,-61.026 -150.999,-121.026 53,-53 148.012,-317.965 193.012,-317.965 55,0 111,-19.015 168,-22.015 69,-3 117.971,115.017 180.971,150.017 51,29 48.987,116.988 88.987,162.988 82,91.999 141.048,65.981 228.048,131.981 90,67 160.971,155.023 254.971,218.023 43,37 151.978,168.987 191.978,125.987 111,-122 79.024,-3.001 161.024,56.999 70,51 130.977,72.025 211.977,104.025 108,43 223.035,169.983 223.035,279.983 0,205 -131.028,-63.998 -175.028,-76.998 l -182.004,-53.02 c -74,-21 -175.987,-100.979 -256.987,-134.979 -22,-9 -61.974,-47.992 -83.974,-45.992 -11,1 -3.016,22.991 -2.016,28.991 6,23 -39.02,37.992 -53.02,45.992 -54,31 54.024,118.987 -43.976,125.987 -34,3 -235.999,-101.965 -187.999,55.035 29,95 44.993,200.984 156.993,185.984 53,-7 105,278.984 131,333.984 34.999,74 -337.018,161.995 -392.018,173.995 -49,12 -67.974,-37.983 -83.974,-74.983 -18,-42.999 -128.014,16.987 -153.014,-42.012 l -88.987,-205.001 c -13,-30 -7.012,-63.96 -5.012,-98.96 1,-11 9,-83.042 0,-86.042 v -3.979 c -95,-24 -88.988,42.004 -125.988,108.004 -42,75 -148.017,87.981 -224.017,94.981 -125,12 -18.988,54.003 -68.988,91.003 -82,61 -259.984,35.027 -353.984,64.027 -28,9 -130.037,-14.036 -109.037,-55.036 9,-18 40.013,-19.989 42.013,-48.989 6,-90 -10.994,-39.013 68.006,-79.013 16,-8 98.01,-156.007 102.01,-179.007 12,-61 -197.993,89.027 -213.993,101.027 -77.999,58 -49.033,89.986 -95.032,145.986 -27,33 -126.973,66.018 -103.973,93.018 113.999,138.999 106.98,221.002 282.98,296.002 68,29 156.004,185.99 182.004,253.99 17,43 35.011,160.001 82.011,148.001 134.999,-33 279.973,44.018 402.972,93.018 121,48 89.039,136.961 89.039,246.961 5,103 63.987,364 -5.013,430 -74,70 -174.995,-24.987 -247.995,79.013 -96,135 -182.024,257.993 -235.024,418.993 -34,102 -82.011,260.024 -82.011,366.024 16,69 48.051,141.977 20.051,211.977 -47,119 -268.02,173.009 -221.02,364.008 2,1 2.979,1.031 3.979,4.031 36,0 51.031,-55.034 115.031,-38.034 161,43 131.009,19.009 290.008,-8.991 266,-47 114.97,295.994 200.97,341.994 174,92 278.02,-202.01 389.02,48.99 48,108.999 52.974,264.996 214.974,264.996 47,0 304.038,0.02 146.038,-100.975 -28,-18 -87.009,-26.021 -102.009,-53.02 -49,-90 -78.02,-140.002 -184.02,-185.002 -152,-64 292.979,-721.972 470.979,-721.972 173,0 -96.951,382.991 -127.951,458.991 -77,192.999 -22.014,239.977 -22.014,416.977 2,1 2.979,1.03 3.979,4.03 167,0 407.994,-324.994 435.994,-472.994 7,-35 115.021,-264.996 164.021,-227.996 116,87 21.013,133.974 210.013,83.974 122,-3 207.965,-196.991 280.965,-196.991 0,121 -20,340 -131,430 -80,65 -97.986,303.985 -14.986,370.985 272,220 243.024,-306.961 235.024,-471.961 -3,-66 22.993,-274.051 119.993,-225.051 84,42 135.97,140.021 200.97,164.021 79.999,30 122.997,-78.007 207.997,-48.007 258,92 618.007,303.002 777.007,-76.998 62,-148 281.011,-120.966 418.011,-92.966 43,9 119.022,34.983 144.022,74.983 22,36 -164.021,2.013 -164.021,42.012 82,21 144.975,99.963 194.975,-15.037 54,-123 79.04,-214.977 -61.96,-248.977 -268,-63 170.984,-281.988 185.984,-293.988 116.999,-33 81.009,31.972 102.009,123.972 40,178 442.97,485.031 442.97,172.031 0,-78 -115.992,-461.009 -176.992,-495.009 -67,-38 -247.988,-37.031 -273.988,-115.031 -17,-53 -58.992,-226.966 -8.992,-260.966 166,-115 96.008,-201.016 122.008,-375.016 13,-85 16.972,-119.011 123.972,-119.011 130,0 100.021,-68.98 164.021,-151.98 187,-145 212.006,19.998 367.006,19.998 8,0 209.977,-117.022 211.977,-144.022 3,-67 73.007,-179.009 142.007,-196.009 142,-32.999 237.015,249.029 432.015,249.029 148.999,0 196.992,143.009 344.992,196.009 143.999,51 425.014,-247.031 526.014,-340.031 74,-68 125,-64.979 168,33.021 38,87 141.999,140.02 187.999,221.02 93,127 337.993,250.953 492.993,275.952 151,24 309.972,1.017 459.972,-17.983 174,-22 84.018,-28.012 204.018,68.988 77,62 257.992,203.043 344.992,234.043 112,40 50.016,244.994 170.016,304.994 60,60 140.006,77.964 199.006,132.963 45,42 161.979,170.012 171.979,230.012 9,57 -65.01,329.001 -102.009,373.001 -35,41 -218.998,191.006 -207.998,236.006 191,38 358.032,231.007 451.032,404.006 110,341 278.992,38.998 475.991,207.998 73,62 144.998,139.993 244.998,156.993 101,17 215.975,-83.982 251.975,-74.983 17,69 79.042,79.971 66.042,180.971 -9,69 -47.999,267.01 37,307.01 85,40 156.981,-218.976 282.981,-174.976 92.999,32 155.002,121.965 259.002,149.965 87,23 157.019,-31.962 241.019,-41.962 103,-13 245.957,55.003 326.957,-39.997 97.999,-117 97.006,-68.022 199.005,-144.022 113,-109 81.021,-59.003 221.021,-91.003 64,-15 175.991,-10.017 45.992,37.983 -34,13 -164.98,182.043 -171.98,214.043 -26,135 184.974,17.984 271.974,17.984 172.999,0 194.015,244.016 301.015,281.016 144,50 277.979,-154.031 433.978,-115.032 l -205.982,196.009 c 0,4 -2.015,4.992 -2.015,8.992 49,16 119.992,20.013 176.992,42.013 5,2 306.042,-113.017 328.042,-150.017 33,-54 -9.044,-127.002 -9.044,-185.001 0,-36 112.022,15.037 144.022,15.037 l 429.018,-5.012 c 197,-3 247.995,-63.028 247.995,-269.028 0,-57 -126.014,-225.979 -153.014,-302.979 -37,-105 -98.013,-143.981 -210.013,-131.981 -69,8 -236.982,-170.028 -205.982,-232.027 59,-116 63.018,-46.994 130.018,-25.994 145,47 61.96,-68.001 61.96,-111.001 -21,-39 -64.98,-241.002 -114.98,-91.002 h -5.013 c -7,21 -107.987,12.015 -125.987,2.015 -72,-39.999 -85.987,-187.017 -88.987,-261.017 -3,-65 -32.012,-198.011 -5.012,-250.011 52,-105 2.992,-321.985 176.992,-333.985 16,-1 157.008,4.023 122.008,-23.977 -48,-38 -50.985,-84.016 -34.985,-133.016 47,0 129.979,-33.032 171.979,-58.032 89,-53 123.983,51.016 185.983,113.016 71,71 147.991,15.988 233.991,-5.012 v -3.98 c -48,-23.999 -89.999,-174.007 -56.999,-216.007 44,-55 252,21.988 336,-62.012 85,-10 268.045,-330.982 288.045,-410.982 101,0 64.968,96.992 220.968,-11.007 62,-43 142.019,-1.014 204.019,14.986 70,18 57.973,-36.962 103.973,-41.962 54,-6 129.018,52.99 204.018,48.99 75,-3 163.992,-101.028 213.992,-101.028 0,129 423.026,138.028 551.026,175.028 75,22 163.963,49.017 189.963,-54.983 24,-96 137.017,-59.027 224.017,-121.027 31,16 66.005,9.977 88.005,43.977 59,94 191.983,93.016 242.983,170.016 40,60.999 87.037,120.021 146.037,164.021 43,31.999 81.993,46.005 119.993,88.004 25,27 4.961,53.975 41.961,83.975 107,88 89.024,231.014 124.024,358.014 -15,104 43.002,108.004 128.002,108.004 61,0 137.012,28.007 193.012,11.007 48,-15 95.973,-78.04 140.973,-106.04 122,-76 236.026,-176.957 383.026,-195.957 94,-12 159.004,-18.025 219.004,63.975 16,22 278.992,26.028 307.992,7.028 27,-17 -7.988,-228.011 5.012,-287.011 74,-125 164.002,-34.022 279.002,-13.022 61.999,12 248.964,-46.992 280.964,-8.992 79,92 704.004,428.006 575.004,68.006 -25,-70 -80.991,-88.983 -65.991,-185.983 10,-68 88.01,-58.033 139.01,-58.033 90,0 83.983,-131.973 185.983,-140.973 122,-10 102.027,-115.032 195.027,-115.032 l 91.002,-11.007 -5.012,-28.99 c -10,-31 -126.021,-138.991 -90.021,-159.991 18,-11 41.026,-28.989 47.026,-48.989 10,-33 48.97,-15.994 69.97,-5.994 52,23 91.037,17.012 146.037,5.012 22,-4 47.004,6.997 71.004,2.997 35,-6 40.972,-21.033 66.972,-38.033 79,-62 130.979,-69.99 134.979,-179.989 3,-92 23.034,-168.021 38.034,-258.021 8,-49 -1.022,-108.959 -13.022,-155.959 -20,-82 5.991,-78.008 65.99,-122.008 59,-51 57.039,-71.995 89.039,-136.995 24,-50 84.966,-106.027 129.966,-138.027 102,-73 113.017,-214.982 113.017,-336.982 0,-42 0.01,-195.027 42.013,-195.027 32.999,0 241.996,-10.979 227.996,33.021 -15,49 -33.993,71.022 11.007,107.022 87,70 1.978,77.99 23.978,122.99 29,63 88.997,-52.032 96.997,-78.032 24,-46 51.995,-100.988 79.995,-142.988 24,-35 64.006,-92.979 68.006,-134.979 2,-21 -15.008,-58.991 8.992,-65.991 28,-9 73.003,8.961 108.003,4.961 55,24 174,20.011 224.999,-11.989 78,-48 79.995,19.994 136.995,62.994 127,97 251.042,-46.99 328.042,-122.99 58,-57 129.993,-12.986 193.993,-71.986 74,-67.999 157.004,84.971 239.004,-24.029 23.999,-14 86.998,-53.989 113.998,-48.989 45,7 59.989,-0.998 85.989,-39.998 19,-28 100.976,-177.006 100.976,-68.006 0,42 -16.001,85.009 56.999,65.009 75,-21 140.041,-72.002 217.041,-54.002 38,9 93.983,-57.971 111.983,-86.971 42,-65 70.986,-31.022 108.986,-70.022 26,-27 34.987,-90.988 -5.013,-105.988 -64,-24 -31.988,-78.041 -31.988,-143.041 0,-60 20.987,-36.951 51.987,-70.951 64,-15 125.001,-2.037 148.001,-72.037 l 52.038,-156.993 c 22,-66 7.978,-45.975 60.978,-26.975 44,15.999 83.003,47.993 128.003,62.993 81,28 88.025,-96.997 141.025,-96.997 14,0 83.987,9.966 88.987,18.966 17,31 -32.015,84.024 34.985,67.024 36,-9 52.03,-51.03 98.03,-24.03 24,15 82.967,73.037 109.967,35.037 26,-36 24.03,-137.986 24.03,-182.986 58,-15 171.996,-42.001 227.996,-74.001 100,0 187.965,-26.041 280.965,-49.041 80,-20 96.025,94.041 178.025,12.041 53,-54 176.969,-268.01 126.969,-344.01 -21,-32 -47.954,-54.009 -30.954,-102.009 37,-77 165.988,-226.032 162.988,-303.031 -5,-129 16.987,-161.972 -99.012,-217.972 l -239.004,-116.013 c -112,-54 -235.974,-20.981 -345.974,16.019 -77,25 -114.038,-27.026 -183.038,-27.026 -75.999,0 -126,44.03 -205,4.03 -43,-28 -58.982,-116.039 -74.982,-163.039 -21,-65 -42.987,-106.959 -88.987,-155.959 -31,-32 -23.033,-264.0012 35.967,-279.0012 l 1.033,-2.997 c -21,-7 -45.009,4.987 -65.009,-5.013 0,-33 18,-52.98 37,-77.98 23,-31 9.974,-58.031 46.974,-41.031 16,7 49.033,9.03 58.033,24.03 3,5 33.967,64.983 35.967,54.983 17,0 43.035,-47.03 55.035,-61.03 53,-70.999 81.964,-104.953 169.964,-124.953 37,-9 182.004,-41.001 182.004,-74.001 0,-28 -59.992,-18.035 -82.992,-18.035 -35,0 20.035,-54.997 -18.965,-96.997 -74,-78.999 -66.042,86.035 -86.042,112.035 -18,23 -105.957,46.966 -138.957,55.966 -57,16 -111.045,-21.982 -157.045,-0.982 -55,25 -97.999,74.012 -150.999,99.012 -21,10 -136.965,-58.019 -149.965,-73.019 -34,-42 89.968,-109.011 109.968,-119.011 34,-16 -20.962,-58.995 15.038,-79.995 39,-23 79.995,-37.003 116.995,-71.003 l 128.003,-120.975 c 101.999,-97 79.984,-188.038 91.984,-314.038 h -222.984 c -11,-134 69.98,-129.964 151.98,-206.964 118,-111 -185.991,-132.035 -233.991,-149.035 -115,-41 -111.005,-80.997 -219.004,-2.997 -47,34 -23.018,91.021 -56.018,127.021 -28,31 -84.99,49.003 -122.99,71.003 -54,32 -65.006,4.014 -68.006,-51.986 -6,-162 180.989,-243.023 273.989,-349.023 132,-71 260.003,-141.001 370.003,-242.001 34,-31 -168.96,-246.98 -192.96,-282.98 -62,-94 -162.037,-150.015 -203.037,-264.015 -18,-29 -49.999,-75.985 -56.999,-108.985 -7,-35 26.003,-68.028 34.003,-101.028 9,-39 -2.979,-176.014 53.02,-190.014 0,-2 0.982,-2.961 0.982,-4.961 -58,-15 -184.006,-89.029 -199.006,-155.029 -16,-70 53.012,-161.961 99.012,-209.961 l -14.004,-62.012 c -20,-42 -95.013,-102.035 -79.013,-149.035 14,-42 130.042,-69.979 29.042,-97.979 -23,-6 -90.04,-40.98 -106.04,-57.98 -38,-38 -99.966,-73.001 -129.966,-111.001 -16,-20 33,-41.043 37,-66.043 11,-79 -62.995,-160.97 -42.995,-237.97 20,-74 63.984,-111.031 91.984,-172.031 30,-65 -99.022,-111.98 -50.022,-151.98 18,-15 81.995,-57.011 79.995,-82.011 -2,-32 -88.986,-110.963 -108.986,-132.963 -30,-31 -46.01,-71.012 -82.01,-99.012 l -133.997,-102.009 c -54,-55 -97.989,-96.992 -105.989,-176.992 -9,-103 35.012,-85.016 -68.988,-76.016 -45,4 -86.018,14.003 -130.018,-2.997 -118,-45 -132.993,-384.009 -156.993,-495.009 -56,-112 83.004,-68.964 108.004,-132.963 17,-45 -145.025,-124.044 -141.025,-177.044 3,-50 50.026,-82.971 47.026,-143.97 -3,-70 -105.993,-144.987 -119.993,-219.987 -24,-49 -46.03,-100.032 -61.03,-152.032 -15,-52 -38.966,-76.972 -92.966,-86.972 -36,-6 -49.027,-50.995 -64.027,-79.995 -18,-33 -67.967,-88.026 -72.967,-121.026 -25,-4 -54.995,59.983 -79.995,74.983 -54,39 -80.006,160.031 -31.006,209.031 65,66 102.961,124.966 78.962,223.965 -20,82 -56.975,94.018 -120.975,130.018 -62,48 19.98,92.993 -16.02,156.993 -35,61 -67.007,128.991 -85.007,196.991 -11,42 22.011,90.023 -11.989,124.023 -36,36 -78.994,46.988 -99.994,-5.012 -16,-38 -113.008,-148.968 -85.008,-183.968 26,-32 62.017,-29.042 56.017,-86.042 -5,-42 -15.031,-109.965 -4.031,-149.965 l -440.955,-270.991 -41.031,45.992 c -36,45 -73.006,84.964 -105.006,132.964 -27,41 -69.996,62.998 -116.996,76.998 -30,9 -60.984,2.025 -91.984,10.025 -67,30 -128.979,98.996 -171.979,153.996 -45,56.999 -90.042,60.978 -160.042,60.978 -154,0 -285.974,23.019 -419.974,-57.981 -97,-46 -248.984,-117.009 -353.984,-65.009 -101,50 -188.046,132.032 -305.046,152.032 -64,11 -153.976,-20.996 -211.976,14.004 -65,39 -106.017,-48.006 -150.017,-105.006 -47,-61 66.009,-226.006 102.009,-293.006 33,-60 81.999,-130.991 -17.001,-139.991 -36,-3 29.997,-43.005 39.997,-51.005 60,-44 126.992,-47.039 139.992,-126.039 0,-42 7.994,-64.989 -31.006,-85.989 -36,-19 -100.994,-55.973 -136.994,-66.973 0,-27 42.996,-87.998 59.996,-113.998 33,-52 110.018,31.002 130.018,-39.998 12,-42 15.025,-79.041 10.025,-123.041 -7,-69 33.987,-78.997 88.987,-96.997 114,-38 44.991,-111.983 65.991,-185.983 -5,-82 -87.998,-173.011 -113.998,-250.011 -25,0 -67.005,42.033 -88.005,58.033 -16,13 -55.016,54.002 -76.016,54.002 -28,-42 -10.985,-171.036 2.015,-223.036 8,-33 -0.99,-72.976 8.01,-100.976 -6,-13 -16.991,-11.986 -28.991,-14.986 -5,-1 -11.019,-3.012 -16.019,-5.012 -19,-4 -35.984,-10.005 -54.984,-14.005 -6,-1 -12.035,-1.979 -18.035,-3.979 -32,-10 -101.964,-35.014 -132.964,-22.014 -53,22 -59.992,39.01 -119.992,8.01 -87,-46 -122.018,47.984 -224.018,-2.016 -28,-13.999 -46.771,-28.778 -60.771,-29.403 z m -18823.244,3123.375 -111.001,207.997 105.989,68.007 -0.982,1.033 c 38,-6 60.018,-45.031 73.018,-78.031 13,-31 1.008,-65.997 11.008,-96.997 l 25.993,-55.965 z m 1275.013,3263.418 c 12.5,1.625 25.503,5.581 34.003,5.581 l -2.016,1.034 16.02,11.989 c 7,15 24.968,28.01 15.968,45.01 -7,13 -16.969,25.99 -32.969,28.99 -28,4 -40,-19.018 -56.999,-36.018 -12,-13 -16.013,-31.956 -5.013,-47.956 6.5,-9.5 18.506,-10.255 31.006,-8.63 z m -358.015,258.589 c -18,0 -31,2.032 -37,21.032 -8,23 -7.966,63.008 1.034,85.008 5,12 16.006,39.977 31.005,43.977 26,6 28.988,-39.002 31.988,-54.002 l 5.995,-36.019 c 2,-9 -6.023,-33.997 -13.023,-39.997 z m 7607.03,7075.0212 c -34,0 -61.99,10.985 -85.99,34.985 l -22.014,13.022 v -1.033 c -22,11 -46.988,25.034 -68.988,38.034 -26,16 -41.037,91.011 -35.037,119.01 3,13 6.03,34.985 24.03,34.985 29,0 44.99,-74.033 65.99,-95.033 17,-17 38.012,-43.955 62.012,-47.955 35,-5 62.959,-29.033 81.959,-58.033 14,-22 2.037,-37.982 -21.962,-37.982 z m 3437.981,1430.972 c 14,4 18.027,8.999 27.027,19.999 24,28 16.962,72.04 21.962,106.04 h -0.982 l -8.991,39.997 c -7,9 -11.03,22.978 -24.03,23.978 -8,1 -13.983,-2.991 -17.983,-8.991 -7,-12 -12.02,-18.022 -16.02,-33.022 -3,-12 -2.961,-22.985 -4.961,-34.985 -3,-22 -28.022,-126.016 23.978,-113.016 z"
   sodipodi:nodetypes="cccsccccccccccccccccccccccccccccscscccccccccccccsccccccccccscccccccccccccccccccccscccccccccccccccscccccsccsccccccccccccccccccccccccsccscccccccccscscccccccsccccccccccccsccccccccccccccccccsccccccccccccccccccccccccccccccccccccccscccccccsccccccccccscccccccsccccscssccccccccccscccccscccccccccccccsccccccccscccsccccccccccccccccccccccccccccccccccccccccscccscccccccccccccccccccccsccccscsccsccccccccccccccccccsccccccccsccccccsccscccccccsccccccscccccccccccscccccccsccccccccccsccccccccccccccccsscccccscccccccccsccccsscccccsccccccccccccccsccccccccscccsscccccccccccccccccccccccccccccccccccccccccccccccccscccccccccsccccccccccsccccccccccccccccccccccccccccsccccccccscccccccsccccccccscccccssccscccccccccc"
   inkscape:export-filename="rect38.svg"
   inkscape:export-xdpi="96"
   inkscape:export-ydpi="96" />&#10;  &#10;  &#10;  &#10;  &#10;  &#10;  &#10;  &#10;  &#10;  &#10;  &#10;  &#10;  &#10;  &#10;  &#10;  &#10;  &#10;  &#10;  &#10;  &#10;  &#10;  &#10;  &#10;  &#10;  &#10;  &#10;  &#10;  &#10;  &#10;  &#10;  &#10;  &#10;  &#10;  &#10;  &#10; </g>&#10;</svg>
